<svg width="136" height="37" viewBox="0 0 136 37" fill="none" xmlns="http://www.w3.org/2000/svg">
<path d="M7.09702 26.0822L12.0997 13.8886L17.2796 26.0822L24.3757 6.36148H20.3661L16.9952 16.9287L12.1343 5.61935L7.66398 16.8934L4.00962 6.36148H0L7.09611 26.0822H7.09702ZM34.6183 25.1636C39.9763 25.1636 41.9624 23.2901 41.9624 23.2901V19.8619C41.927 19.8619 39.1949 21.7706 34.6892 21.7706C30.5378 21.7706 28.5507 19.2256 28.1255 16.3983H42.7793V14.6308C42.7793 10.2133 39.6928 5.83023 34.3702 5.83023C28.6934 5.83023 24.4711 10.0006 24.4711 15.4788C24.4711 20.7452 28.1609 25.1627 34.6192 25.1627L34.6183 25.1636ZM28.3027 13.4298C28.5153 12.0161 29.8636 8.94173 33.8732 8.94173C37.8829 8.94173 38.8051 12.0161 38.9468 13.4298H28.3027ZM48.6924 24.6332H52.5239V8.97703H58.8041V5.86733H52.5239V0.0362014L41.6317 8.97793H48.6924V24.6341V24.6332ZM69.9689 5.79584C65.4986 5.79584 64.2566 8.62316 64.2566 8.62316V0L60.4251 0.636239V24.6332H64.2566V14.3484C64.2566 10.9201 66.7407 9.18881 69.401 9.18881C71.9206 9.18881 73.517 10.8495 73.517 13.7837V24.6341H77.3485V13.3954C77.3485 8.37699 74.0839 5.79674 69.9689 5.79674V5.79584ZM84.3265 24.6332H88.158V8.97703H94.4382V5.86733H88.158V0.0362014L77.2658 8.97793H84.3265V24.6341V24.6332ZM103.616 25.1636C106.596 25.1636 108.548 23.997 109.754 22.7607L109.719 24.6341H113.586V6.36239H109.79V8.12992C108.512 6.85744 106.277 5.83294 103.616 5.83294C98.0099 5.83294 94.0357 10.1798 94.0357 15.5168C94.0357 20.8538 98.0099 25.1654 103.616 25.1654V25.1636ZM103.899 21.7706C100.458 21.7706 97.8673 18.9433 97.8673 15.4797C97.8673 12.0161 100.458 9.2241 103.899 9.2241C107.306 9.2241 110.002 11.5211 110.002 15.4797C110.002 19.4736 107.306 21.7706 103.899 21.7706Z" fill="#201E1E"/>
<path d="M127.957 20.2436L131.384 24.6086H135.997L130.214 17.571L127.958 20.2445L127.957 20.2436ZM130.213 12.5472L135.288 6.33594H131.101L128.072 9.93888L130.213 12.5463V12.5472Z" fill="#201E1E"/>
<path d="M115.668 24.6086H120.103L128.157 15.0659L120.99 6.33594H116.377L123.545 14.7835L115.668 24.6086Z" fill="url(#paint0_linear_2376_2678)"/>
<path d="M51.101 35.2023C52.4557 35.2023 53.4161 34.1606 53.4161 32.8709C53.4161 31.5812 52.4557 30.5305 51.101 30.5305C50.4577 30.5305 49.918 30.7785 49.6091 31.0853V29.1214L48.6914 29.2752V35.0738H49.6263L49.6173 34.6213C49.9089 34.9199 50.3805 35.2023 51.101 35.2023ZM51.0319 34.3823C50.2088 34.3823 49.5573 33.8275 49.5573 32.8619C49.5573 31.9053 50.2088 31.3505 51.0319 31.3505C51.8633 31.3505 52.5157 32.0247 52.5157 32.8619C52.5157 33.699 51.8642 34.3823 51.0319 34.3823ZM54.4619 36.8504H55.4477L58.4397 30.659H57.4711L56.0992 33.5886L54.7272 30.659H53.7586L55.6194 34.5615L54.4619 36.8504ZM62.8128 35.424L64.0221 32.4772L65.2741 35.424L66.9886 30.6581H66.0201L65.206 33.2121L64.0312 30.4789L62.9509 33.2031L62.0677 30.6581H61.0991L62.8137 35.424H62.8128ZM69.8689 35.2023C71.1636 35.2023 71.6434 34.7498 71.6434 34.7498V33.9217C71.6352 33.9217 70.9746 34.3832 69.8861 34.3832C68.8831 34.3832 68.4024 33.7687 68.2997 33.0854H71.8405V32.6582C71.8405 31.5903 71.0946 30.5314 69.8089 30.5314C68.4369 30.5314 67.4166 31.5396 67.4166 32.8628C67.4166 34.1353 68.3079 35.2032 69.8689 35.2032V35.2023ZM68.3424 32.3668C68.3942 32.0247 68.7195 31.2826 69.6881 31.2826C70.6566 31.2826 70.8801 32.0256 70.9138 32.3668H68.3415H68.3424ZM73.675 35.0738H74.6008V31.2907H76.1182V30.5396H74.6008V29.1304L71.9686 31.2907H73.675V35.0738ZM79.2219 30.5215C78.1416 30.5215 77.8418 31.2048 77.8418 31.2048V29.1214L76.9159 29.2752V35.0738H77.8418V32.5886C77.8418 31.7604 78.4424 31.3414 79.0847 31.3414C79.6935 31.3414 80.0796 31.7432 80.0796 32.4519V35.0738H81.0055V32.3578C81.0055 31.145 80.2168 30.5215 79.2219 30.5215ZM83.0971 35.0738H84.0229V31.2907H85.5403V30.5396H84.0229V29.1304L81.3907 31.2907H83.0971V35.0738ZM88.1898 35.2023C89.4845 35.2023 89.9642 34.7498 89.9642 34.7498V33.9217C89.9561 33.9217 89.2955 34.3832 88.207 34.3832C87.2039 34.3832 86.7233 33.7687 86.6206 33.0854H90.1614V32.6582C90.1614 31.5903 89.4154 30.5314 88.1298 30.5314C86.7578 30.5314 85.7375 31.5396 85.7375 32.8628C85.7375 34.1353 86.6288 35.2032 88.1898 35.2032V35.2023ZM86.6633 32.3668C86.7151 32.0247 87.0404 31.2826 88.0089 31.2826C88.9775 31.2826 89.201 32.0256 89.2346 32.3668H86.6624H86.6633ZM93.3596 35.2023C93.8139 35.2023 94.5426 35.1 94.946 34.7842V33.9298C94.946 33.9298 94.3973 34.3914 93.3596 34.3914C92.3738 34.3914 91.7478 33.7769 91.7478 32.8628C91.7478 32.0256 92.3993 31.3423 93.2742 31.3423C94.3373 31.3423 94.8606 32.0084 94.8606 32.0084V31.0609C94.4663 30.6934 93.823 30.5314 93.2742 30.5314C91.8341 30.5314 90.8483 31.5731 90.8483 32.8628C90.8483 34.1525 91.706 35.2032 93.3606 35.2032L93.3596 35.2023ZM98.2379 30.5224C97.1576 30.5224 96.8577 31.2057 96.8577 31.2057V29.1223L95.9319 29.2761V35.0747H96.8577V32.5895C96.8577 31.7614 97.4583 31.3423 98.1007 31.3423C98.7094 31.3423 99.0956 31.7442 99.0956 32.4528V35.0747H100.021V32.3587C100.021 31.1459 99.2328 30.5224 98.2379 30.5224ZM103.665 30.5224C102.585 30.5224 102.285 31.2057 102.285 31.2057V30.659H101.359V35.0747H102.285V32.5895C102.285 31.7614 102.884 31.3423 103.528 31.3423C104.136 31.3423 104.523 31.7442 104.523 32.4528V35.0747H105.448V32.3587C105.448 31.1459 104.66 30.5224 103.665 30.5224ZM108.818 35.2023C110.164 35.2023 111.244 34.1606 111.244 32.8709C111.244 31.5812 110.164 30.5305 108.818 30.5305C107.472 30.5305 106.392 31.5812 106.392 32.8709C106.392 34.1606 107.472 35.2023 108.818 35.2023ZM108.818 34.3742C107.943 34.3742 107.283 33.699 107.283 32.8709C107.283 32.0338 107.943 31.3595 108.818 31.3595C109.693 31.3595 110.352 32.0347 110.352 32.8709C110.352 33.699 109.692 34.3742 108.818 34.3742ZM112.273 35.0747H113.199V29.1223L112.273 29.2761V35.0747ZM116.654 35.2032C118.001 35.2032 119.081 34.1615 119.081 32.8718C119.081 31.5822 118.001 30.5314 116.654 30.5314C115.309 30.5314 114.228 31.5822 114.228 32.8718C114.228 34.1615 115.309 35.2032 116.654 35.2032ZM116.654 34.3751C115.78 34.3751 115.12 33.6999 115.12 32.8718C115.12 32.0347 115.78 31.3604 116.654 31.3604C117.529 31.3604 118.189 32.0356 118.189 32.8718C118.189 33.6999 117.528 34.3751 116.654 34.3751ZM121.953 36.997C123.788 36.997 124.483 35.9037 124.483 34.614L124.5 30.6599H123.574V31.0871C123.265 30.7794 122.725 30.5323 122.082 30.5323C120.727 30.5323 119.767 31.5831 119.767 32.8727C119.767 34.1624 120.727 35.2041 122.082 35.2041C122.794 35.2041 123.265 34.9308 123.557 34.6321V34.7344C123.557 35.7679 122.923 36.1779 121.919 36.1779C120.831 36.1779 120.179 35.7163 120.179 35.7163V36.5445C120.179 36.5445 120.658 36.997 121.953 36.997ZM122.15 34.3832C121.319 34.3832 120.693 33.6999 120.693 32.8628C120.693 32.0256 121.319 31.3514 122.15 31.3514C122.973 31.3514 123.625 31.9062 123.625 32.8628C123.625 33.8275 122.973 34.3832 122.15 34.3832ZM126.163 30.0273C126.462 30.0273 126.694 29.7965 126.694 29.506C126.694 29.2073 126.462 28.9766 126.163 28.9766C125.871 28.9766 125.639 29.2073 125.639 29.506C125.639 29.7965 125.871 30.0273 126.163 30.0273ZM125.743 35.0747H126.669V30.6509H125.743V35.0747ZM130.176 35.2032C131.471 35.2032 131.95 34.7507 131.95 34.7507V33.9226C131.942 33.9226 131.282 34.3841 130.193 34.3841C129.19 34.3841 128.709 33.7696 128.607 33.0863H132.147V32.6591C132.147 31.5912 131.402 30.5323 130.116 30.5323C128.744 30.5323 127.724 31.5405 127.724 32.8637C127.724 34.1362 128.615 35.2041 130.176 35.2041V35.2032ZM128.649 32.3677C128.701 32.0256 129.026 31.2835 129.995 31.2835C130.964 31.2835 131.187 32.0265 131.221 32.3677H128.648H128.649ZM134.145 35.2032C135.388 35.2032 135.895 34.5371 135.895 33.8628C135.895 33.1967 135.56 32.9062 134.969 32.565C134.205 32.1206 133.966 32.0265 133.966 31.7451C133.966 31.5143 134.172 31.3523 134.669 31.3523C135.115 31.3523 135.509 31.5405 135.706 31.7279V30.8228C135.492 30.6943 135.098 30.5323 134.557 30.5323C133.751 30.5323 133.091 31.0102 133.091 31.7623C133.091 32.4971 133.622 32.7786 134.205 33.1035C134.729 33.394 135.029 33.5904 135.029 33.9144C135.029 34.2049 134.729 34.3841 134.137 34.3841C133.417 34.3841 132.834 33.88 132.834 33.88V34.7851C132.834 34.7851 133.391 35.2032 134.146 35.2032H134.145Z" fill="#201E1E"/>
<defs>
<linearGradient id="paint0_linear_2376_2678" x1="123.009" y1="9.1524" x2="123.009" y2="26.2422" gradientUnits="userSpaceOnUse">
<stop stop-color="#0CFB6C"/>
<stop offset="1" stop-color="#25FD6A"/>
</linearGradient>
</defs>
</svg>

